<?xml version="1.0" encoding="utf-8"?>
<!-- Generator: Adobe Illustrator 26.1.0, SVG Export Plug-In . SVG Version: 6.00 Build 0)  -->
<svg version="1.1" id="Layer_1" xmlns="http://www.w3.org/2000/svg" xmlns:xlink="http://www.w3.org/1999/xlink" x="0px" y="0px"
	 viewBox="0 0 300 300" style="enable-background:new 0 0 300 300;" xml:space="preserve">
<style type="text/css">
	.st0{fill:#512BD4;}
	.st1{fill:#FFFFFF;}
</style>
<rect x="29.5" y="30" class="st0" width="241" height="241"/>
<path class="st1" d="M72.5,184c-1.7,0-3.1-0.6-4.3-1.7c-1.2-1.1-1.8-2.6-1.8-4.2s0.6-3.1,1.8-4.2c1.2-1.2,2.7-1.8,4.3-1.8
	c1.8,0,3.2,0.6,4.4,1.8c1.2,1.1,1.8,2.6,1.8,4.2s-0.6,3-1.8,4.2C75.6,183.4,74.2,184,72.5,184z"/>
<path class="st1" d="M140.6,183h-11.1l-29.2-46c-0.7-1.2-1.4-2.4-1.8-3.6h-0.2c0.2,1.4,0.3,4.2,0.3,8.6V183h-9.8v-62.7h11.8
	l28.2,44.9c1.2,1.8,1.9,3.1,2.3,3.9h0.2c-0.3-1.7-0.4-4.5-0.4-8.4v-40.3h9.7V183z"/>
<path class="st1" d="M188.3,183H154v-62.7H187v8.8h-22.8V147h21v8.8h-21v18.5h24.2V183L188.3,183z"/>
<path class="st1" d="M237,129.2h-17.5V183h-10.1v-53.8h-17.5v-8.8h45.2L237,129.2L237,129.2z"/>
</svg>
