<svg id="Layer_1" data-name="Layer 1" xmlns="http://www.w3.org/2000/svg" viewBox="0 0 300 300"><defs><style>.cls-1{fill:#5382a1;}.cls-2{fill:#f8981d;}</style></defs><path class="cls-1" d="M112.1,229s-11,6.42,7.85,8.59c22.89,2.62,34.59,2.24,59.81-2.53a103.83,103.83,0,0,0,15.89,7.76C139.11,267,67.68,241.36,112.1,229"/><path class="cls-1" d="M105.19,197.33s-12.38,9.17,6.52,11.12c24.45,2.52,43.76,2.73,77.17-3.7A34.24,34.24,0,0,0,200.77,212c-68.36,20-144.51,1.58-95.58-14.66"/><path class="cls-2" d="M163.43,143.69c13.93,16-3.66,30.47-3.66,30.47S195.15,155.9,178.9,133c-15.17-21.32-26.81-31.92,36.19-68.45,0,0-98.88,24.69-51.66,79.11"/><path class="cls-1" d="M238.21,252.34s8.17,6.73-9,11.94c-32.64,9.89-135.84,12.87-164.51.39-10.3-4.48,9-10.7,15.1-12a39.13,39.13,0,0,1,10-1.11c-11.46-8.08-74.08,15.85-31.8,22.7,115.28,18.7,210.15-8.42,180.24-21.91"/><path class="cls-1" d="M117.4,164.57s-52.49,12.47-18.59,17c14.32,1.92,42.86,1.49,69.44-.74,21.72-1.83,43.54-5.73,43.54-5.73a92.28,92.28,0,0,0-13.2,7.06c-53.31,14-156.29,7.5-126.65-6.84C97,163.19,117.4,164.57,117.4,164.57"/><path class="cls-1" d="M211.57,217.2c54.19-28.15,29.14-55.22,11.65-51.57a39.69,39.69,0,0,0-6.2,1.67,9.86,9.86,0,0,1,4.63-3.58c34.6-12.16,61.21,35.88-11.17,54.9a4.72,4.72,0,0,0,1.09-1.42"/><path class="cls-2" d="M178.9,5.58s30,30-28.46,76.19c-46.89,37-10.7,58.14,0,82.27-27.37-24.7-47.46-46.44-34-66.67C136.21,67.67,191,53.27,178.9,5.58"/><path class="cls-1" d="M122.73,293.51c52,3.33,131.89-1.85,133.78-26.46,0,0-3.64,9.33-43,16.74-44.39,8.35-99.15,7.38-131.63,2,0,0,6.65,5.51,40.84,7.7"/></svg>