<?xml version="1.0" encoding="utf-8"?>
<!-- Generator: Adobe Illustrator 26.1.0, SVG Export Plug-In . SVG Version: 6.00 Build 0)  -->
<svg version="1.1" id="Layer_1" xmlns="http://www.w3.org/2000/svg" xmlns:xlink="http://www.w3.org/1999/xlink" x="0px" y="0px"
	 viewBox="0 0 300 300" style="enable-background:new 0 0 300 300;" xml:space="preserve">
<style type="text/css">
	.st0{fill:#68217A;}
	.st1{fill:#953DAC;}
	.st2{fill:#FEFEFE;}
	.st3{fill:#822C98;}
</style>
<g>
	<path class="st0" d="M280.9,210.3V89.8c0-9.8-5.2-18.9-13.7-23.8L163.8,5.9c-8.5-5-19.1-5-27.6,0L32.8,66
		C24.3,71,19.1,80,19.1,89.8v120.5c0,9.8,5.2,18.9,13.7,23.8l103.4,60.1c8.5,5,19.1,5,27.6,0l103.4-60.1
		C275.7,229.1,280.9,220.1,280.9,210.3z"/>
	<path class="st1" d="M267.6,66.3L163.4,5.7c-8.3-4.8-18.5-4.8-26.8,0L32.4,66.3c-8.2,4.8-13.3,13.5-13.3,23v121.5
		c0,4.6,1.2,9,3.3,12.9l254.7-148C274.8,71.8,271.6,68.6,267.6,66.3z"/>
	<path class="st2" d="M150.4,106c23.5,0,42.6,19.6,42.6,43.6s-19.1,43.6-42.6,43.6s-42.6-19.6-42.6-43.6S126.9,106,150.4,106
		 M150.4,61.4c-48.2,0-87.2,39.5-87.2,88.2s39,88.2,87.2,88.2s87.2-39.5,87.2-88.2S198.6,61.4,150.4,61.4L150.4,61.4z"/>
	<path class="st3" d="M278.1,222.7c1.8-3.6,2.8-7.7,2.8-11.9V89.3c0-4.9-1.4-9.6-3.8-13.7c-36.9,21.4-81.5,47.3-126.1,73.3
		C196,175,241,201.2,278.1,222.7z"/>
	<path class="st2" d="M258.9,139.9v-8.7h-6l1.7-9.7h-7.8l-1.7,9.7h-11.6l1.8-10.2h-7.8l-1.8,10.2h-8.4v8.7h6.8l-2.1,11.6h-7.7v8.7
		h6.2l-1.8,10.2h7.8l1.8-10.2H240l-1.9,10.7h7.8l1.9-10.7h8.2v-8.7h-6.7l2.1-11.6H258.9z M241.5,151.5h-11.6l2.1-11.6h11.6
		L241.5,151.5z"/>
</g>
</svg>
