<svg id="Camada_1" data-name="Camada 1" xmlns="http://www.w3.org/2000/svg" viewBox="0 0 300 300"><defs><style>.cls-1{fill:#61dafb;}</style></defs><title>logo-react</title><circle class="cls-1" cx="150" cy="149.95" r="24.1"/><path class="cls-1" d="M150,205.21c-75.81,0-135.2-24.27-135.2-55.26S74.19,94.69,150,94.69,285.2,119,285.2,150,225.81,205.21,150,205.21Zm0-98.76c-72.75,0-123.44,22.93-123.44,43.5s50.69,43.5,123.44,43.5S273.44,170.52,273.44,150,222.75,106.45,150,106.45Z"/><path class="cls-1" d="M204,270.52c-12,0-26.46-6.58-42.19-19.36-20.83-16.93-42-43.06-59.63-73.58C64.24,111.93,55.57,48.36,82.4,32.87S160,56.68,197.85,122.33c17.62,30.51,29.66,61.92,33.91,88.43,4.55,28.4-.48,48.38-14.16,56.27A26.75,26.75,0,0,1,204,270.52ZM96,41.17A15.31,15.31,0,0,0,88.28,43c-17.81,10.3-12.32,65.66,24,128.67C129.25,201,149.45,226,169.19,242c18,14.62,33.51,20,42.53,14.82s12.1-21.34,8.43-44.24c-4-25.13-15.56-55.1-32.48-84.41h0C155.76,72.93,117,41.17,96,41.17Z"/><path class="cls-1" d="M96,270.52A26.75,26.75,0,0,1,82.4,267c-13.68-7.89-18.71-27.87-14.16-56.27,4.25-26.51,16.29-57.92,33.91-88.43,37.9-65.65,88.61-105,115.45-89.46s18.16,79.06-19.75,144.71h0c-17.62,30.52-38.8,56.65-59.63,73.58C122.49,263.94,108,270.52,96,270.52ZM204,41.17c-21,0-59.76,31.76-91.68,87-16.92,29.31-28.46,59.28-32.48,84.41-3.67,22.9-.6,39,8.43,44.24s24.53-.2,42.53-14.82c19.74-16,39.94-41,56.86-70.33C224,108.7,229.53,53.34,211.72,43A15.31,15.31,0,0,0,204,41.17Z"/></svg>