<svg id="Camada_1" data-name="Camada 1" xmlns="http://www.w3.org/2000/svg" viewBox="0 0 300 300"><defs><style>.cls-1{fill:#300;}.cls-2{fill:#ff9a00;}</style></defs><title>logo-illustrator</title><g id="Layer_2" data-name="Layer 2"><g id="Drawing_Surface" data-name="Drawing Surface"><g id="Outline_no_shadow" data-name="Outline no shadow"><rect class="cls-1" x="26.39" y="29.48" width="247.22" height="241.04" rx="43.78"/></g></g><g id="Ai"><path class="cls-2" d="M146.19,174.13H107.88l-7.8,24.22a2,2,0,0,1-2,1.49H78.69c-1.11,0-1.49-.61-1.16-1.82l33.17-95.53c.33-1,.66-2.13,1-3.4a35.2,35.2,0,0,0,.67-6.72,1,1,0,0,1,.87-1.16h26.66c.77,0,1.21.28,1.32.83l37.65,106.14c.33,1.11,0,1.66-1,1.66H156.31a1.53,1.53,0,0,1-1.66-1.16Zm-32.34-20.89h26.2q-1-3.31-2.32-7.47t-2.82-8.87q-1.49-4.72-3-9.45t-2.74-9.12q-1.24-4.39-2.24-8h-.16a134.84,134.84,0,0,1-3.49,13.27Q121,131,118.58,138.81t-4.73,14.43Z"/><path class="cls-2" d="M201.25,108.79a12,12,0,0,1-9.12-3.65,13.1,13.1,0,0,1-3.49-9.45,12.21,12.21,0,0,1,3.73-9.21,12.82,12.82,0,0,1,9.21-3.56q6,0,9.37,3.56a12.84,12.84,0,0,1,3.4,9.21,13,13,0,0,1-3.57,9.45A12.68,12.68,0,0,1,201.25,108.79ZM189.8,198.18V118.91c0-1,.44-1.5,1.33-1.5h20.4c.88,0,1.33.5,1.33,1.5v79.27c0,1.11-.45,1.66-1.33,1.66H191.3C190.3,199.84,189.8,199.29,189.8,198.18Z"/></g></g></svg>