<?xml version="1.0" encoding="utf-8"?>
<!-- Generator: Adobe Illustrator 26.1.0, SVG Export Plug-In . SVG Version: 6.00 Build 0)  -->
<svg version="1.1" id="Camada_1" xmlns="http://www.w3.org/2000/svg" xmlns:xlink="http://www.w3.org/1999/xlink" x="0px" y="0px"
	 viewBox="0 0 300 300" style="enable-background:new 0 0 300 300;" xml:space="preserve">
<style type="text/css">
	.st0{fill:#00005B;}
	.st1{fill:#9999FF;}
</style>
<g id="vlpa_00000163061873701191558720000003557879803159471506_">
	<g id="vlpb_00000020385732792303228250000012755164875301897625_">
		<g id="vlpc_00000005265402390814658180000010546527562976702099_">
			<g id="vlpd_00000057855724498893098900000003675920864761850269_">
				<path class="st0" d="M72.5,33h155C251,33,270,52,270,75.5v149c0,23.5-19,42.5-42.5,42.5h-155C49,267,30,248,30,224.5v-149
					C30,52,49,33,72.5,33z"/>
			</g>
		</g>
	</g>
	<g id="vlpe_00000029037726348139559910000015993848312610916765_">
		<g id="vlpf_00000026139256933506421700000011878568103627473542_">
			<path class="st1" d="M87,197V94c0-0.7,0.3-1.1,1-1.1c1.7,0,3.3,0,5.6-0.1c2.4-0.1,4.9-0.1,7.6-0.2c2.7-0.1,5.6-0.1,8.7-0.2
				s6.1-0.1,9.1-0.1c8.2,0,15,1,20.6,3.1c5,1.7,9.6,4.5,13.4,8.2c3.2,3.2,5.7,7.1,7.3,11.4c1.5,4.2,2.3,8.5,2.3,13
				c0,8.6-2,15.7-6,21.3s-9.6,9.8-16.1,12.2c-6.8,2.5-14.3,3.4-22.5,3.4c-2.4,0-4,0-5-0.1s-2.4-0.1-4.3-0.1v32.1
				c0.1,0.7-0.4,1.3-1.1,1.4h-0.4h-19c-0.8,0-1.2-0.4-1.2-1.3L87,197z M108.8,112.3v33.6c1.4,0.1,2.7,0.2,3.9,0.2h5.3
				c3.9,0,7.8-0.6,11.5-1.8c3.2-0.9,6-2.8,8.2-5.3c2.1-2.5,3.1-5.9,3.1-10.3c0.1-3.1-0.7-6.2-2.3-8.9c-1.7-2.6-4.1-4.6-7-5.7
				c-3.7-1.5-7.7-2.1-11.8-2c-2.6,0-4.9,0-6.8,0.1C110.9,112.1,109.5,112.2,108.8,112.3L108.8,112.3z"/>
			<path class="st1" d="M177,118.2h17.5c1,0,1.8,0.7,2.1,1.6c0.3,0.8,0.5,1.6,0.6,2.5c0.2,1,0.4,2.1,0.5,3.1
				c0.1,1.1,0.2,2.3,0.2,3.6c3-3.5,6.6-6.4,10.7-8.6c4.6-2.6,9.9-3.9,15.2-3.9c0.7-0.1,1.3,0.4,1.4,1.1v0.4v19.5
				c0,0.8-0.5,1.1-1.6,1.1c-3.6-0.1-7.3,0.2-10.8,1c-2.9,0.6-5.7,1.5-8.4,2.7c-1.9,0.9-3.7,2.1-5.1,3.7v51c0,1-0.4,1.4-1.3,1.4
				h-19.7c-0.8,0.1-1.5-0.4-1.6-1.2v-0.4v-55.4c0-2.4,0-4.9-0.1-7.5c-0.1-2.6-0.1-5.2-0.2-7.8c0-2.3-0.2-4.5-0.4-6.8
				c-0.1-0.5,0.2-1,0.7-1.1C176.7,118.1,176.9,118.1,177,118.2L177,118.2z"/>
		</g>
	</g>
</g>
</svg>
