<svg xmlns="http://www.w3.org/2000/svg" viewBox="0 0 283 200"><defs><style>.cls-1{fill:#fd2155;}</style></defs><title>logo-jl</title><g id="Camada_2" data-name="Camada 2"><g id="Camada_1-2" data-name="Camada 1"><path class="cls-1" d="M105,0a5,5,0,0,0-5,5V125a25,25,0,0,1-25,25h0a25,25,0,0,1-25-25V105a5,5,0,0,0-5-5H5a5,5,0,0,0-5,5v20a75,75,0,0,0,75,75h0a75,75,0,0,0,75-75V5a5,5,0,0,0-5-5Z"/><path class="cls-1" d="M278,200H178a5,5,0,0,1-5-5V45a5,5,0,0,1,5-5h40a5,5,0,0,1,5,5V150h55a5,5,0,0,1,5,5v40A5,5,0,0,1,278,200Z"/></g></g></svg>