<svg id="Camada_1" data-name="Camada 1" xmlns="http://www.w3.org/2000/svg" viewBox="0 0 300 300"><defs><style>.cls-1{fill:#264de4;}.cls-2{fill:#2965f1;}.cls-3{fill:#ebebeb;}.cls-4{fill:#fff;}</style></defs><title>logo-css</title><g id="g3013"><polygon id="polygon2989" class="cls-1" points="254.5 60.47 235.46 273.77 149.87 297.5 64.52 273.81 45.5 60.47 254.5 60.47"/><polygon id="polygon2991" class="cls-2" points="219.16 260.19 235.43 77.92 150 77.92 150 279.36 219.16 260.19"/><polygon id="polygon2993" class="cls-3" points="89.1 157.04 91.45 183.2 150 183.2 150 157.04 89.1 157.04"/><polygon id="polygon2995" class="cls-3" points="150 104.08 149.91 104.08 84.39 104.08 86.77 130.25 150 130.25 150 104.08"/><polygon id="polygon2997" class="cls-3" points="150 252.21 150 224.99 149.88 225.02 120.75 217.15 118.88 196.29 104.72 196.29 92.62 196.29 96.28 237.37 149.88 252.25 150 252.21"/><path id="path2999" d="M94.69,2.5h31.69V15.75H107.94V29h18.44V42.26H94.69Z"/><path id="path3001" d="M132.71,2.5H164.4V14H146v2.31H164.4v26.5H132.71V30.73h18.44v-2.3H132.71Z"/><path id="path3003" d="M170.74,2.5h31.69V14H184v2.31h18.44v26.5H170.74V30.73h18.44v-2.3H170.74Z"/><polygon id="polygon3005" class="cls-4" points="182.13 183.2 179.09 217.14 149.91 225.01 149.91 252.23 203.55 237.37 203.94 232.95 210.09 164.06 210.73 157.04 215.45 104.08 149.91 104.08 149.91 130.25 186.78 130.25 184.4 157.04 149.91 157.04 149.91 183.2 182.13 183.2"/></g></svg>