<svg id="Camada_1" data-name="Camada 1" xmlns="http://www.w3.org/2000/svg" viewBox="0 0 300 300"><defs><style>.cls-1{fill:#f7df1e;}</style></defs><title>logo-js</title><rect class="cls-1" x="29.48" y="29.48" width="241.04" height="241.04" rx="29.19"/><path d="M191.4,217.79c4.85,7.93,11.17,13.76,22.34,13.76,9.39,0,15.38-4.69,15.38-11.17,0-7.77-6.16-10.52-16.49-15L207,202.91c-16.34-7-27.2-15.69-27.2-34.13,0-17,12.94-29.92,33.17-29.92,14.4,0,24.75,5,32.21,18.14l-17.63,11.32c-3.89-7-8.08-9.7-14.58-9.7s-10.84,4.21-10.84,9.7c0,6.8,4.21,9.55,13.93,13.76l5.66,2.42c19.24,8.26,30.11,16.67,30.11,35.59,0,20.39-16,31.56-37.53,31.56-21,0-34.63-10-41.28-23.16Zm-80,2c3.56,6.31,6.8,11.65,14.58,11.65,7.44,0,12.14-2.91,12.14-14.24v-77h22.65v77.32c0,23.45-13.75,34.13-33.83,34.13-18.13,0-28.63-9.39-34-20.69Z"/></svg>