<svg id="Camada_1" data-name="Camada 1" xmlns="http://www.w3.org/2000/svg" viewBox="0 0 300 300"><defs><style>.cls-1{fill:#e44d26;}.cls-2{fill:#f16529;}.cls-3{fill:#ebebeb;}.cls-4{fill:#fff;}</style></defs><title>logo-hmtl</title><path d="M65,2.5H78.21V15.64H90.42V2.5h13.26V42.26H90.42V29H78.32V42.26H65m56.23-26.51H109.5V2.5h36.7V15.75H134.44V42.26H121.19M152,2.5H165.9l8.53,14L183,2.5h13.88V42.26H183.59V22.55l-9.28,14.29L165,22.55V42.26H152M203.41,2.5h13.25V29.12h18.79V42.26h-32"/><path class="cls-1" d="M64.5,273.88l-19-213.42h209l-19,213.3L149.83,297.5"/><path class="cls-2" d="M150,279.35V78h85.45L219.14,260.05"/><path class="cls-3" d="M84.32,104.08H150v26.16H113L115.43,157H150v26.1H91.46m1.15,13.14h26.28l1.84,20.91L150,225v27.31l-53.7-15"/><path class="cls-4" d="M215.45,104.08H149.88v26.16H213M210.67,157H149.88v26.16h32.27l-3.05,34L149.88,225v27.19l53.59-14.86"/></svg>