<svg id="Camada_1" data-name="Camada 1" xmlns="http://www.w3.org/2000/svg" viewBox="0 0 300 300"><defs><style>.cls-1{fill:#001e36;}.cls-2{fill:#31a8ff;}</style></defs><title>logo-photoshop</title><g id="Layer_2" data-name="Layer 2"><g id="Surfaces"><g id="Photo_Surface" data-name="Photo Surface"><g id="Outline_no_shadow" data-name="Outline no shadow"><rect class="cls-1" x="26.39" y="29.48" width="247.22" height="241.04" rx="43.78"/></g></g></g><g id="Outlined_Mnemonics_Logos" data-name="Outlined Mnemonics Logos"><g id="Ps"><path class="cls-2" d="M82.06,198.51v-106c0-.78.33-1.16,1-1.16,1.77,0,3.38,0,5.82-.09l7.87-.16,9-.17q4.72-.08,9.37-.08,12.6,0,21.23,3.15a36.76,36.76,0,0,1,13.85,8.46,32.37,32.37,0,0,1,7.54,11.69A38.72,38.72,0,0,1,160,127.53q0,13.28-6.13,21.89a34.69,34.69,0,0,1-16.59,12.52c-7,2.6-14.7,3.48-23.22,3.48-2.43,0-4.14,0-5.14-.08s-2.48-.08-4.47-.08v33.09a1.32,1.32,0,0,1-1.12,1.49,1.21,1.21,0,0,1-.38,0H83.22C82.44,199.84,82.06,199.4,82.06,198.51Zm22.4-87.23v34.56c1.43.11,2.76.17,4,.17h5.47a38.81,38.81,0,0,0,11.86-1.89,17.88,17.88,0,0,0,8.45-5.48q3.24-3.81,3.24-10.61a16.71,16.71,0,0,0-2.41-9.12,15.41,15.41,0,0,0-7.21-5.89A30.73,30.73,0,0,0,115.73,111c-2.65,0-5,0-7,.08s-3.45.14-4.22.25Z"/><path class="cls-2" d="M224.14,139.56a38.53,38.53,0,0,0-9.87-3.48,52,52,0,0,0-11.53-1.33,21.42,21.42,0,0,0-6.22.74,5.61,5.61,0,0,0-3.23,2.08,5.22,5.22,0,0,0-.83,2.82,4.36,4.36,0,0,0,1,2.65,11.34,11.34,0,0,0,3.48,2.74,69.14,69.14,0,0,0,7.3,3.4,72.09,72.09,0,0,1,15.83,7.54,24.1,24.1,0,0,1,8.13,8.54,22.9,22.9,0,0,1,2.41,10.62,23.91,23.91,0,0,1-4,13.68,26.26,26.26,0,0,1-11.53,9.2q-7.54,3.33-18.66,3.32a67.27,67.27,0,0,1-14-1.33,44.61,44.61,0,0,1-10.53-3.31,2.16,2.16,0,0,1-1.17-2V177.54a1,1,0,0,1,.42-.92.8.8,0,0,1,.91.09,44.6,44.6,0,0,0,12.77,5.06,52.63,52.63,0,0,0,12.11,1.57c3.87,0,6.71-.5,8.54-1.49a4.69,4.69,0,0,0,2.74-4.31q0-2.16-2.49-4.15t-10.12-4.81a61,61,0,0,1-14.68-7.46,25.35,25.35,0,0,1-7.79-8.71,22.91,22.91,0,0,1-2.41-10.53,23.85,23.85,0,0,1,3.49-12.44A25.25,25.25,0,0,1,185,120q7.29-3.64,18.24-3.65a81.44,81.44,0,0,1,12.77.91,33.47,33.47,0,0,1,8.89,2.41,1.52,1.52,0,0,1,1,.91,4.69,4.69,0,0,1,.16,1.24v16.75a1.09,1.09,0,0,1-.5,1A1.61,1.61,0,0,1,224.14,139.56Z"/></g></g></g></svg>